<?xml version="1.0" encoding="UTF-8"?><svg id="Layer_1" xmlns="http://www.w3.org/2000/svg" viewBox="0 0 500 123"><defs><style>.cls-1,.cls-2{fill:#0f0f0f;}.cls-2{fill-rule:evenodd;}</style></defs><g><path class="cls-1" d="M276.12,96.65c-3.57,6.22-8.97,8.56-17.84,8.56-13.66,0-21.81-8.87-21.81-23.04v-6.73c0-14.47,6.83-22.83,20.18-22.83s20.18,8.26,20.18,22.83v5.3h-32.21v1.43c0,8.77,4.18,15.7,13.05,15.7,6.62,0,9.99-1.94,12.13-5.71l6.32,4.48Zm-31.5-23.04h23.95c-.41-8.56-4.18-13.66-11.93-13.66s-11.52,5.2-12.03,13.66Z"/><path class="cls-1" d="M303.2,74.94h12.13v-5.91c0-7.24-3.36-8.87-11.31-8.87-6.12,0-9.38,.51-12.23,5.2l-6.12-4.28c3.57-5.91,8.77-8.46,18.45-8.46,12.95,0,19.37,4.18,19.37,16.41v35.37h-8.16v-5c-2.85,4.69-6.32,5.81-12.94,5.81-11.82,0-18.25-5.81-18.25-15.7,0-11.01,7.85-14.58,19.06-14.58Zm12.13,6.93h-12.13c-8.05,0-10.91,2.75-10.91,7.85,0,5.71,4.08,7.95,10.09,7.95,7.54,0,12.94-1.43,12.94-12.84v-2.96Z"/><path class="cls-1" d="M330.76,53.43h6.52v-11.21h8.15v11.21h11.72v7.34h-11.72v25.89c0,7.03,.82,9.99,7.64,9.99h4.08v7.75h-4.38c-12.03,0-15.49-5.1-15.49-15.7v-27.93h-6.52v-7.34Z"/><path class="cls-1" d="M365.54,34.07h8.16v24.36c2.55-3.87,6.12-5.81,13.66-5.81,10.91,0,18.55,5.71,18.55,19.98v31.8h-8.16v-31.7c0-10.29-5.6-12.54-11.62-12.54-7.64,0-12.43,5.4-12.43,12.44v31.8h-8.16V34.07Z"/><path class="cls-1" d="M454.92,96.65c-3.57,6.22-8.97,8.56-17.84,8.56-13.66,0-21.81-8.87-21.81-23.04v-6.73c0-14.47,6.83-22.83,20.18-22.83s20.18,8.26,20.18,22.83v5.3h-32.21v1.43c0,8.77,4.18,15.7,13.05,15.7,6.62,0,9.99-1.94,12.13-5.71l6.32,4.48Zm-31.5-23.04h23.95c-.41-8.56-4.18-13.66-11.93-13.66s-11.52,5.2-12.03,13.66Z"/><path class="cls-1" d="M493.07,64.44c-2.14-2.96-4.79-4.28-8.56-4.28-6.22,0-10.91,4.69-10.91,12.33v31.9h-8.16V53.43h8.16v4.99c2.14-3.57,5.6-5.81,11.82-5.81,6.93,0,11.32,2.34,14.58,6.93l-6.93,4.89Z"/><polygon class="cls-2" points="223.89 53.43 213.7 89.51 200.14 53.43 193.31 53.43 180.47 89.21 169.74 51.54 169.21 51.54 163.65 60.45 176.39 104.4 183.52 104.4 197.08 66.28 210.64 104.4 217.77 104.4 232.55 53.43 223.89 53.43"/></g><g><polygon class="cls-1" points="143.78 74.91 126.67 46.77 110.46 46.77 127.9 74.91 97.86 122.96 118.09 116.43 143.78 74.91"/><polygon class="cls-1" points="145.32 73.52 169.96 34.06 173.98 27.53 153.75 34.06 137.7 60.98 145.32 73.52"/><polygon class="cls-1" points="137.54 88.87 147.52 104.39 163.73 104.39 145.33 76.27 137.54 88.87"/></g><path class="cls-2" d="M107.76,26.89l.11,.03,.11,.03,.12,.06,.08,.06,.06,.08,.05,.08,.03,.11,.03,.11v6.07l-.03,.11-.03,.08-.05,.08-.06,.08-.08,.08-.12,.06-.11,.03h-13.43l-.08-.03-.11-.06-.09-.08-.06-.08-.05-.08-.03-.11-.03-.11V.97l.03-.11,.03-.11,.05-.08,.06-.08,.09-.08,.11-.03,.08-.06h5.99l.11,.06,.09,.03,.11,.08,.06,.08,.05,.08,.03,.11,.03,.11V26.92l6.85-.03Zm-58.44,6.61l-.03,.11-.03,.11-.05,.08-.09,.08-.09,.08-.08,.06-.12,.03h-6.2l-.11-.03-.11-.06-.09-.08-.09-.08-.06-.08-.03-.11V.86l.03-.08,.06-.11,.09-.08,.09-.08,.11-.03,.11-.06h6.2l.12,.06,.08,.03,.09,.08,.09,.08,.05,.11,.03,.08,.03,.14V33.49Zm69.21-9.05h3.54l-1.68-9.61-1.85,9.61Zm12.09,9.02l.03,.11-.03,.11-.06,.08-.05,.11-.09,.06-.09,.06-.11,.06h-6.01l-.11-.03-.11-.06-.11-.08-.09-.08-.05-.08-.06-.11-.03-.11-.51-2.89h-5.81l-.56,2.89-.03,.11-.06,.11-.05,.08-.09,.08-.11,.08-.09,.06-.14,.03h-5.31l-.11-.06-.11-.06-.09-.06-.09-.11-.03-.08-.03-.06v-.17l2.92-16.22,2.92-16.25,.03-.14,.05-.08,.06-.11,.08-.08,.12-.08,.11-.03,.11-.06h6.77l.11,.06,.11,.06,.11,.06,.08,.08,.06,.11,.06,.08,.03,.14,3.2,16.25,3.23,16.22Zm-51.34-9.02h3.55l-1.66-9.61-1.89,9.61Zm12.11,9.02v.23l-.05,.08-.06,.11-.05,.06-.09,.06-.11,.06h-6.07l-.11-.03-.11-.06-.08-.08-.09-.08-.09-.08-.06-.11-.03-.11-.5-2.89h-5.79l-.57,2.89-.03,.11-.05,.11-.09,.08-.09,.08-.09,.08-.11,.06-.11,.03h-5.39l-.11-.06-.09-.06-.09-.06-.05-.11-.03-.08-.03-.11v-.11l2.92-16.22,2.92-16.25,.03-.14,.06-.08,.08-.11,.09-.08,.09-.08,.11-.03,.11-.06h6.8l.11,.06,.11,.06,.09,.06,.09,.08,.09,.11,.03,.08,.05,.14,3.21,16.25,3.23,16.22ZM27.51,24.44h3.55l-1.69-9.61-1.85,9.61Zm12.09,9.02v.23l-.06,.08-.05,.11-.09,.06-.11,.06-.09,.06h-6.01l-.11-.03-.11-.06-.11-.08-.09-.08-.05-.08-.06-.11-.03-.11-.51-2.89h-5.81l-.56,2.89-.03,.11-.06,.11-.05,.08-.09,.08-.11,.08-.11,.06-.11,.03h-5.49l-.08-.06-.09-.06-.09-.06-.03-.11-.03-.08v-.23l2.95-16.22L25.26,1l.03-.14,.05-.08,.06-.11,.09-.08,.11-.08,.08-.03,.15-.06h6.71l.14,.06,.11,.06,.11,.06,.09,.08,.09,.11,.06,.08,.03,.14,3.2,16.25,3.23,16.22ZM19.69,.41l.12,.03,.11,.03,.08,.06,.09,.06,.06,.08,.03,.11,.03,.11v.11l-2.92,16.25-2.92,16.22-.03,.11-.05,.11-.06,.11-.11,.08-.09,.08-.11,.03-.11,.06H7.02l-.11-.06-.11-.06-.11-.06-.08-.08-.06-.11-.06-.11-.03-.11L3.23,17.25,0,1v-.11l.03-.11v-.06l.03-.06,.05-.08,.09-.08,.09-.03,.11-.06H6.44l.11,.03,.11,.06,.11,.08,.09,.08,.05,.08,.06,.11,.03,.11,3.26,18.64L13.85,.97l.05-.11,.03-.11,.08-.08,.09-.08,.11-.08,.09-.03,.11-.06h5.28Zm48.33,18.38l.11,.11,.31,.31,.17,.25,.22,.28,.22,.31,.25,.36,.22,.42,.22,.45,.2,.48,.11,.28,.09,.25,.09,.28,.08,.28,.06,.28,.05,.31,.03,.31,.03,.31,.03,.34v1.27l-.05,.48-.06,.45-.09,.45-.11,.42-.11,.45-.14,.42-.2,.42-.16,.39-.22,.39-.22,.37-.26,.39-.25,.34-.28,.34-.3,.34-.31,.31-.34,.31-.34,.28-.37,.28-.36,.25-.4,.23-.39,.22-.45,.2-.42,.2-.42,.17-.45,.14-.45,.11-.46,.11-.47,.06-.47,.06-.48,.06h-.95l-.48-.03-.45-.06-.45-.06-.45-.08-.42-.11-.42-.11-.42-.11-.39-.17-.4-.17-.36-.17-.37-.2-.36-.23-.17-.11-.16-.11-.31-.25-.31-.25-.31-.28-.28-.28-.25-.31-.26-.31-.25-.34-.2-.36-.2-.34-.19-.39-.15-.37-.14-.42-.14-.39-.09-.42-.09-.45-.05-.45-.06-.45v-.48l-.03-.96,.03-.9v-.08l.03-.11,.03-.06,.08-.08,.06-.06,.09-.03,.11-.03,.08-.03h5.85l.11,.03,.09,.03,.09,.03,.08,.08,.06,.06,.03,.08,.06,.11v2.19l.03,.2,.03,.17,.03,.2,.09,.17,.09,.17,.09,.17,.11,.14,.05,.08,.06,.06,.14,.14,.14,.11,.17,.11,.16,.08,.17,.06,.2,.06,.16,.03,.2,.03,.2-.03,.16-.03,.2-.03,.17-.06,.14-.06,.17-.08,.14-.11,.11-.11,.14-.11,.11-.11,.09-.14,.09-.14,.09-.17,.05-.17,.03-.17,.03-.08v-2.42l-.06-.2-.05-.22-.11-.25-.15-.31-.11-.14-.11-.14-.25-.34-.2-.2-.28-.28-.82-.76-1.01-.93-1.07-.98-1.97-1.71-.85-.79-.14-.14-.36-.42-.53-.62-.31-.39-.31-.42-.31-.48-.31-.53-.28-.53-.14-.28-.11-.31-.15-.31-.11-.31-.09-.31-.08-.31-.09-.31-.06-.34-.05-.34-.03-.34v-.11l-.03-.45v-.93l.03-.48,.08-.48,.06-.45,.11-.45,.14-.45,.06-.2,.09-.23,.16-.42,.17-.39,.22-.42,.19-.36,.26-.39,.25-.37,.28-.34,.28-.34,.31-.34,.34-.31,.34-.28,.34-.28,.37-.25,.36-.23,.4-.23,.42-.22,.39-.17,.42-.17,.42-.14,.45-.14,.45-.08,.45-.08,.48-.06,.47-.06h.92l.46,.03,.45,.06,.42,.08,.41,.08,.42,.11,.42,.11,.4,.14,.39,.17,.42,.2,.37,.2,.34,.2,.36,.25,.31,.23,.34,.28,.28,.28,.31,.28,.26,.31,.28,.34,.22,.34,.22,.34,.22,.37,.2,.39,.17,.39,.14,.39,.14,.42,.15,.42,.08,.45,.09,.45,.06,.45,.03,.48,.03,.48v2.3l-.03,.08-.06,.08-.05,.08-.06,.06-.08,.03-.11,.03-.09,.03-5.74-.03h-.11l-.09-.03-.08-.06-.09-.06-.06-.08-.05-.08-.03-.08v-2.98l-.03-.2-.03-.2-.03-.17-.09-.17-.05-.17-.11-.14-.09-.14-.15-.14-.11-.11-.16-.11-.14-.11-.17-.06-.16-.08-.17-.03-.2-.03-.2-.03-.16,.03-.17,.03-.16,.03-.17,.06-.16,.08-.15,.08-.14,.08-.11,.11-.14,.11-.09,.14-.11,.14-.09,.14-.05,.17-.06,.17-.05,.17v.17l-.03,1.97v.08l.06,.39,.05,.25,.09,.31,.06,.17,.08,.17,.06,.14,.09,.17,.09,.14,.11,.14,.11,.11,.11,.11,.45,.37,.9,.82,2.5,2.3,3.54,3.26Z"/></svg>